# xmcd
#
# Track frame offsets: 
#        150
#        8205
#        26226
#        42414
#        54865
#        70910
#        73921
#        90843
#        103882
#        120959
#        142159
#        161331
#        167831
#        183603
#        196225
#        209660
#        220091
#        235890
#        256919
#        269742
#        283945
#        298314
#        319274
#        322356
#        340974
#
# Disc length: 4581 seconds
#
# Revision: 3
# Processed by: cddbd v1.5.2PL0 Copyright (c) Steve Scherf et al.
# Submitted via: ExactAudioCopy v0.99pb5
#
DISCID=9611e319
DTITLE=Jazz and Noir - Jazz and Noir
DYEAR=2008
DGENRE=Jazz
TTITLE0=Alfred Hitchcock - Music to Be Murdered By (Marche funebre d'u
TTITLE0=ne marionnette)
TTITLE1=Miles Davis - Motel (Diner au motel)
TTITLE2=Chico Hamilton, Elmer Bernstein - Goodby Baby Blues
TTITLE3=Shorty Rogers, Helmer Bernstein - Audition
TTITLE4=Gerry Mulligan, Johnny Mandel - Black Nightgown
TTITLE5=Bernard Herrmann - Trip to the Court
TTITLE6=Shorty Rogers, Helmer Bernstein - Breakup
TTITLE7=Maynard Ferguson, Franz Waxman - Blues
TTITLE8=Erroll Garner - The Way You Look Tonight
TTITLE9=Alex North - Floozie
TTITLE10=Piero Umiliani - Lyda
TTITLE11=Robert Mitchum - I Get a Kick Out of You
TTITLE12=Jean Wiener - Touchez pas au grisbi
TTITLE13=Ray Anthony, Walter Schumann - Dragnet
TTITLE14=Julie London - Meaning of the Blues
TTITLE15=Chico Hamilton, Elmer Bernstein - Night Beat
TTITLE16=Henry Mancini - Touch of Evil (Main Title)
TTITLE17=Magali Noël - Rififi
TTITLE18=Duke Ellington - Sophisticated Lady
TTITLE19=Lee Wiley - Oh! Look at Me Now
TTITLE20=Ray Anthony, Earle Hagen - Harlem Nocturne
TTITLE21=Ella Fitzgerald - Peter Kelly's Blues
TTITLE22=Bernard Herrmann - Prologue
TTITLE23=Miles Davis - Final (Take 3) (Chez le photographe du motel)
TTITLE24=Edmond O'Brien, George Lynn - ''I want to report a murder...'
TTITLE24='
EXTD=YEAR: 2008
EXTT0=
EXTT1=
EXTT2=
EXTT3=
EXTT4=
EXTT5=
EXTT6=
EXTT7=
EXTT8=
EXTT9=
EXTT10=
EXTT11=
EXTT12=
EXTT13=
EXTT14=
EXTT15=
EXTT16=
EXTT17=
EXTT18=
EXTT19=
EXTT20=
EXTT21=
EXTT22=
EXTT23=
EXTT24=
PLAYORDER=
